<?xml version="1.0" encoding="utf-8"?>
<!-- Generator: Adobe Illustrator 17.0.0, SVG Export Plug-In . SVG Version: 6.00 Build 0)  -->
<!DOCTYPE svg PUBLIC "-//W3C//DTD SVG 1.1//EN" "http://www.w3.org/Graphics/SVG/1.1/DTD/svg11.dtd">
<svg version="1.1"
	 id="svg2331" xmlns:sodipodi="http://sodipodi.sourceforge.net/DTD/sodipodi-0.dtd" xmlns:inkscape="http://www.inkscape.org/namespaces/inkscape" xmlns:svg="http://www.w3.org/2000/svg" xmlns:dc="http://purl.org/dc/elements/1.1/" xmlns:cc="http://web.resource.org/cc/" xmlns:rdf="http://www.w3.org/1999/02/22-rdf-syntax-ns#" inkscape:output_extension="org.inkscape.output.svg.inkscape" sodipodi:docname="Chanel logo.svg" sodipodi:docbase="C:\Users\Chris\Desktop\SVGs" inkscape:version="0.45.1" sodipodi:version="0.32"
	 xmlns="http://www.w3.org/2000/svg" xmlns:xlink="http://www.w3.org/1999/xlink" x="0px" y="0px" width="248px" height="183px"
	 viewBox="2140.477 1407.784 248 183" enable-background="new 2140.477 1407.784 248 183" xml:space="preserve">
<sodipodi:namedview  width="9000px" height="9000px" inkscape:cy="2950.1816" inkscape:cx="6061.1894" inkscape:zoom="0.0754" pagecolor="#ffffff" bordercolor="#666666" borderopacity="1.0" gridtolerance="10.0" guidetolerance="10.0" objecttolerance="10.0" id="base" inkscape:window-height="974" inkscape:pageshadow="2" inkscape:window-width="1280" inkscape:pageopacity="0.0" inkscape:current-layer="svg2331" inkscape:window-y="-8" inkscape:window-x="-8">
	</sodipodi:namedview>
<path id="path2342" d="M2163.373,1577.386c-0.1-0.011-0.44-0.047-0.756-0.078c-2.877-0.289-5.949-1.466-8.363-3.204
	c-3.62-2.606-6.171-6.401-7.235-10.763c-0.565-2.318-0.678-4.915-0.316-7.304c0.97-6.405,5.202-11.892,11.074-14.354
	c1.465-0.615,2.919-1.003,4.633-1.238c0.949-0.13,3.262-0.131,4.22-0.001c2.031,0.275,3.753,0.787,5.523,1.643
	c1.947,0.942,3.294,1.912,4.925,3.545c1.426,1.428,2.306,2.617,3.327,4.491l0.217,0.399l-0.769,0.569
	c-1.06,0.784-3.546,2.558-4.356,3.108l-0.669,0.454l-0.275-0.598c-0.34-0.739-0.583-1.177-0.975-1.763
	c-1.567-2.34-4.066-4.012-6.791-4.542c-1.441-0.281-3.216-0.249-4.637,0.082c-1.492,0.347-3.113,1.127-4.351,2.092
	c-0.499,0.389-1.417,1.3-1.821,1.806c-2.18,2.732-2.983,6.213-2.235,9.689c0.259,1.204,0.929,2.776,1.628,3.82
	c1.85,2.764,4.686,4.535,7.898,4.932c0.568,0.07,1.936,0.07,2.504,0c2.845-0.352,5.473-1.83,7.269-4.087
	c0.529-0.665,0.897-1.241,1.318-2.058c0.184-0.358,0.35-0.651,0.369-0.651s1.329,0.924,2.91,2.054l2.876,2.054l-0.292,0.551
	c-0.605,1.144-1.645,2.582-2.614,3.613c-1.651,1.757-3.26,2.951-5.352,3.973c-1.807,0.883-3.722,1.446-5.757,1.693
	C2166.043,1577.369,2163.698,1577.424,2163.373,1577.386z M2187.965,1558.686v-18.001h3.491h3.491v6.461v6.461h9.118h9.118v-6.461
	v-6.461h3.491h3.491v18.001v18.001h-3.491h-3.491v-7.919v-7.919h-9.118h-9.118v7.919v7.919h-3.491h-3.491V1558.686z
	 M2227.217,1573.496c0.778-1.755,4.368-9.856,7.979-18.001l6.564-14.81l4.897,0.001l4.897,0l7.935,17.779
	c4.364,9.778,7.979,17.879,8.034,18l0.1,0.221h-4.18h-4.18l-1.614-3.569l-1.614-3.569l-9.342,0.013l-9.342,0.013l-1.596,3.556
	l-1.596,3.556h-4.179h-4.179L2227.217,1573.496z M2253.083,1562.287c-0.03-0.127-6.372-14.304-6.399-14.304
	c-0.02,0-6.043,14.059-6.139,14.328c-0.011,0.03,2.398,0.049,6.269,0.049C2252.16,1562.359,2253.097,1562.349,2253.083,1562.287z
	 M2273.255,1558.686v-18.001l4.911,0.001l4.91,0.001l7.685,10.793l7.685,10.794l0.013-10.795l0.013-10.795h3.517h3.517v18.001
	v18.001l-2.822-0.014l-2.822-0.013l-9.747-13.531c-5.361-7.442-9.765-13.532-9.786-13.533s-0.039,6.094-0.039,13.544v13.546h-3.517
	h-3.517V1558.686z M2318.218,1558.686v-18.001h12.583h12.583v3.621v3.621h-9.066h-9.066v3.595v3.595h8.388h8.388v3.621v3.621h-8.388
	h-8.388v3.595v3.595h10.368h10.368v3.569v3.569h-13.885h-13.885V1558.686z M2355.835,1558.686v-18.001h3.517h3.517v14.432v14.432
	h9.795h9.795v3.569v3.569h-13.312h-13.312V1558.686z"/>
<path id="path2387" d="M2235.301,1531.529c-7.515-0.348-15.883-2.629-22.63-6.17c-5.179-2.719-9.284-5.76-13.584-10.067
	c-3.368-3.373-5.853-6.48-7.956-9.949l-0.921-1.518l1.306-0.693c2.545-1.35,14.149-7.292,14.24-7.292c0.051,0,0.53,0.652,1.065,1.45
	c6.047,9.013,15.507,14.876,26.577,16.472c1.935,0.279,7.755,0.234,9.862-0.075c2.345-0.345,5.158-0.984,6.944-1.579
	c0.116-0.039-0.106-0.399-0.617-1.002c-3.957-4.665-7.564-11.067-9.594-17.027c-3.671-10.781-3.932-22.354-0.75-33.227
	c1.976-6.752,5.377-13.306,9.683-18.662c0.642-0.798,1.167-1.502,1.167-1.564c0-0.213-3.362-1.107-5.565-1.481
	c-3.404-0.578-8.733-0.649-11.81-0.159c-5.177,0.826-10.431,2.764-14.537,5.364c-4.575,2.897-8.391,6.62-11.436,11.158l-1.344,2.004
	l-1.711-0.898c-0.941-0.494-4.438-2.306-7.77-4.026s-6.069-3.137-6.081-3.148c-0.053-0.047,2.033-3.365,2.892-4.599
	c2.607-3.749,7.236-8.713,10.657-11.428c8.944-7.099,18.886-11.098,30.08-12.096c2.076-0.185,7.225-0.187,9.228-0.003
	c7.107,0.652,13.198,2.375,19.492,5.513l3.008,1.5l1.008-0.573c1.627-0.926,4.518-2.262,6.714-3.103
	c6.16-2.359,12.364-3.481,19.219-3.478c4.787,0.002,8.78,0.473,13.115,1.545c9.794,2.422,18.146,7.066,25.342,14.093
	c3.901,3.809,6.959,7.699,9.427,11.992l0.374,0.651l-6.089,3.141c-3.349,1.728-6.852,3.541-7.785,4.03l-1.696,0.889l-1.282-1.934
	c-6.325-9.542-16.672-15.754-27.997-16.809c-3.353-0.313-8.331-0.025-11.357,0.656c-1.558,0.35-4.086,1.073-4.085,1.167
	c0,0.049,0.414,0.597,0.919,1.217c6.49,7.963,10.542,17.67,11.851,28.389c0.313,2.558,0.354,9.091,0.074,11.623
	c-1.183,10.696-5.227,20.567-11.683,28.514c-1.463,1.802-1.401,1.677-0.932,1.858c0.222,0.086,1.259,0.373,2.305,0.638
	c5.317,1.347,11.04,1.537,16.414,0.546c9.774-1.804,18.576-7.584,24.238-15.916c0.527-0.775,1.002-1.461,1.057-1.524
	c0.055-0.063,1.36,0.516,2.9,1.288c3.052,1.53,12.61,6.476,12.713,6.579c0.171,0.171-2.876,4.693-4.744,7.042
	c-1.769,2.224-6.405,6.855-8.62,8.61c-8.005,6.344-16.988,10.222-26.882,11.607c-11.361,1.59-23.393-0.539-33.182-5.873
	l-1.384-0.754l-1.716,0.908C2254.932,1529.841,2245.179,1531.986,2235.301,1531.529z M2267.041,1500.278
	c4.738-5.865,7.695-12.979,8.423-20.27c0.244-2.447,0.099-7.431-0.282-9.659c-1.048-6.131-3.29-11.386-6.907-16.188
	c-0.681-0.904-1.673-2.113-2.204-2.686l-0.966-1.042l-0.896,0.972c-1.181,1.281-3.15,3.894-4.142,5.498
	c-5.038,8.146-6.682,18.154-4.549,27.679c1.343,5.994,4.429,12.032,8.589,16.801l0.958,1.098l0.419-0.397
	C2265.714,1501.865,2266.415,1501.052,2267.041,1500.278z"/>
</svg>
